<svg width="136" height="35" viewBox="0 0 136 35" fill="none" xmlns="http://www.w3.org/2000/svg">
<circle cx="61" cy="17" r="17" fill="#BCE7F0"/>
<path d="M3.332 8.296L1.26 7.932V6.196H9.772V7.932L7.42 8.296V15.324H15.932V8.296L13.776 7.932V6.196H22.176V7.932L20.048 8.296V25.04L22.176 25.32V27H13.748V25.32L15.932 25.04V17.452H7.42V25.04L9.772 25.32V27H1.204V25.32L3.332 25.04V8.296ZM31.6949 27.308C29.2309 27.308 27.3922 26.5893 26.1789 25.152C24.9842 23.696 24.3869 21.7173 24.3869 19.216C24.3869 17.536 24.6949 16.08 25.3109 14.848C25.9456 13.616 26.8322 12.6733 27.9709 12.02C29.1096 11.3667 30.4256 11.04 31.9189 11.04C33.7856 11.04 35.2229 11.5347 36.2309 12.524C37.2389 13.4947 37.7616 14.8853 37.7989 16.696C37.7989 17.928 37.7242 18.8427 37.5749 19.44H28.4749C28.5496 21.1387 28.9509 22.464 29.6789 23.416C30.4069 24.3493 31.4429 24.816 32.7869 24.816C33.5149 24.816 34.2616 24.6947 35.0269 24.452C35.8109 24.2093 36.4269 23.92 36.8749 23.584L37.5749 25.124C37.0709 25.6653 36.2496 26.1693 35.1109 26.636C33.9909 27.084 32.8522 27.308 31.6949 27.308ZM33.8789 17.76C33.9162 17.2373 33.9349 16.836 33.9349 16.556C33.9349 14.0733 33.1042 12.832 31.4429 12.832C30.5282 12.832 29.8189 13.196 29.3149 13.924C28.8109 14.652 28.5309 15.9307 28.4749 17.76H33.8789ZM45.1574 19.356L40.5374 13.392L39.0814 13.056V11.432H47.1734V13.056L45.3534 13.392L47.5654 16.5L48.2934 17.676L49.0214 16.5L51.2894 13.392L49.3854 13.056V11.432H55.4614V13.056L53.8654 13.392L49.4414 18.824L54.2854 25.096L55.8254 25.348V27H47.7334V25.348L49.3854 25.068L47.2294 21.792L46.3894 20.56L45.7174 21.764L43.4214 25.068L45.5774 25.348V27H38.8574V25.348L40.6494 25.068L45.1574 19.356ZM64.0426 27.308C63.0346 27.308 62.1292 27.224 61.3266 27.056C60.5239 26.888 59.6279 26.664 58.6386 26.384C57.9852 26.1973 57.5466 26.0947 57.3226 26.076L57.5746 20.896H59.8426L60.4586 24.508C60.7012 24.7693 61.1306 25.0027 61.7466 25.208C62.3812 25.4133 63.0999 25.516 63.9026 25.516C65.1532 25.516 66.0866 25.2453 66.7026 24.704C67.3372 24.144 67.6546 23.3693 67.6546 22.38C67.6546 21.7267 67.4679 21.1667 67.0946 20.7C66.7212 20.2147 66.2079 19.7853 65.5546 19.412C64.9012 19.02 64.0052 18.572 62.8666 18.068C61.3172 17.3587 60.0292 16.5187 59.0026 15.548C57.9946 14.5587 57.4906 13.224 57.4906 11.544C57.4906 10.4987 57.7612 9.556 58.3026 8.716C58.8439 7.85733 59.6466 7.18533 60.7106 6.7C61.7932 6.196 63.1092 5.944 64.6586 5.944C65.5732 5.944 66.3759 6.00933 67.0666 6.14C67.7759 6.27067 68.5412 6.448 69.3626 6.672C69.8479 6.80267 70.2119 6.88667 70.4546 6.924L70.2866 11.824H68.0466L67.4586 8.38C67.2906 8.212 66.9546 8.05333 66.4506 7.904C65.9466 7.736 65.3866 7.652 64.7706 7.652C63.6506 7.652 62.8012 7.91333 62.2226 8.436C61.6626 8.94 61.3826 9.62133 61.3826 10.48C61.3826 11.1707 61.5879 11.768 61.9986 12.272C62.4279 12.776 62.9412 13.2053 63.5386 13.56C64.1359 13.896 65.0786 14.3813 66.3666 15.016C67.4119 15.52 68.3079 16.0147 69.0546 16.5C69.8012 16.9853 70.4452 17.62 70.9866 18.404C71.5279 19.1693 71.7986 20.0747 71.7986 21.12C71.7986 22.1467 71.5372 23.1267 71.0146 24.06C70.5106 24.9933 69.6706 25.768 68.4946 26.384C67.3372 27 65.8532 27.308 64.0426 27.308ZM80.9137 27.308C78.4497 27.308 76.611 26.5893 75.3977 25.152C74.203 23.696 73.6057 21.7173 73.6057 19.216C73.6057 17.536 73.9137 16.08 74.5297 14.848C75.1643 13.616 76.051 12.6733 77.1897 12.02C78.3283 11.3667 79.6443 11.04 81.1377 11.04C83.0043 11.04 84.4417 11.5347 85.4497 12.524C86.4577 13.4947 86.9803 14.8853 87.0177 16.696C87.0177 17.928 86.943 18.8427 86.7937 19.44H77.6937C77.7683 21.1387 78.1697 22.464 78.8977 23.416C79.6257 24.3493 80.6617 24.816 82.0057 24.816C82.7337 24.816 83.4803 24.6947 84.2457 24.452C85.0297 24.2093 85.6457 23.92 86.0937 23.584L86.7937 25.124C86.2897 25.6653 85.4683 26.1693 84.3297 26.636C83.2097 27.084 82.071 27.308 80.9137 27.308ZM83.0977 17.76C83.135 17.2373 83.1537 16.836 83.1537 16.556C83.1537 14.0733 82.323 12.832 80.6617 12.832C79.747 12.832 79.0377 13.196 78.5337 13.924C78.0297 14.652 77.7497 15.9307 77.6937 17.76H83.0977ZM93.9562 27.252C92.7802 27.252 91.9122 26.9813 91.3522 26.44C90.7922 25.8987 90.5122 25.04 90.5122 23.864V13.588H88.6922V12.132C88.8415 12.076 89.1122 11.9827 89.5042 11.852C89.8962 11.7027 90.1949 11.5813 90.4002 11.488C90.7175 11.2453 90.9882 10.8253 91.2122 10.228C91.3802 9.836 91.6882 8.86533 92.1362 7.316H94.3762L94.4882 11.432H98.7722V13.588H94.5162V21.456C94.5162 22.5013 94.5442 23.2387 94.6002 23.668C94.6562 24.0973 94.7775 24.3773 94.9642 24.508C95.1509 24.62 95.4775 24.676 95.9442 24.676C96.4109 24.676 96.8962 24.6293 97.4002 24.536C97.9042 24.424 98.3242 24.2933 98.6602 24.144L99.1922 25.712C98.6695 26.104 97.9042 26.4587 96.8962 26.776C95.8882 27.0933 94.9082 27.252 93.9562 27.252ZM113.31 27.28C112.694 27.28 112.246 27.1493 111.966 26.888C111.686 26.6267 111.546 26.2347 111.546 25.712V24.956C111.042 25.572 110.333 26.1227 109.418 26.608C108.503 27.0747 107.589 27.308 106.674 27.308C104.882 27.308 103.603 26.8507 102.838 25.936C102.073 25.0027 101.69 23.472 101.69 21.344V13.448L100.29 13.056V11.46L105.05 11.096H105.078L105.638 11.488V21.344C105.638 22.7067 105.806 23.6587 106.142 24.2C106.478 24.7413 107.103 25.012 108.018 25.012C109.119 25.012 110.146 24.5827 111.098 23.724V13.448L109.222 13.028V11.46L114.29 11.096H114.346L115.018 11.488V25.264H116.586L116.558 26.86C116.483 26.8787 116.138 26.9533 115.522 27.084C114.906 27.2147 114.169 27.28 113.31 27.28ZM134.049 18.712C134.049 20.28 133.722 21.7173 133.069 23.024C132.434 24.3307 131.491 25.376 130.241 26.16C129.009 26.9253 127.534 27.308 125.817 27.308C125.443 27.308 125.051 27.2707 124.641 27.196C124.249 27.14 123.931 27.0653 123.689 26.972L123.773 29.296V31.844L126.377 32.18V33.776H118.061V32.18L119.881 31.844V14.092L118.061 13.588V11.656L122.681 11.068H122.737L123.437 11.628V13.196C123.903 12.6173 124.538 12.1133 125.341 11.684C126.143 11.2547 127.021 11.04 127.973 11.04C129.746 11.04 131.202 11.6747 132.341 12.944C133.479 14.1947 134.049 16.1173 134.049 18.712ZM126.517 13.364C125.957 13.364 125.425 13.4853 124.921 13.728C124.417 13.9707 124.034 14.2413 123.773 14.54V24.928C123.903 25.1147 124.165 25.2733 124.557 25.404C124.967 25.5347 125.415 25.6 125.901 25.6C127.114 25.6 128.075 25.0773 128.785 24.032C129.513 22.968 129.877 21.3067 129.877 19.048C129.877 17.144 129.569 15.7253 128.953 14.792C128.337 13.84 127.525 13.364 126.517 13.364Z" fill="black"/>
</svg>
